<?xml version="1.0" encoding="UTF-8"?>
<svg xmlns="http://www.w3.org/2000/svg" viewBox="0 0 500 500">
  <defs>
    <style>
      .cls-1 {
        fill: #650600;
      }

      .cls-2 {
        fill: #fff;
      }
    </style>
  </defs>
  <rect class="cls-2" width="500" height="500"/>
  <g id="Layer_1" data-name="Layer 1">
    <g>
      <path class="cls-1" d="M247.46,341.75h124.54c4.3,0,7.79-3.49,7.79-7.79s-3.49-7.79-7.79-7.79c-9.01,0-17.48-3.51-23.84-9.88-6.37-6.37-9.88-14.83-9.88-23.85,0-13.18-5.13-25.56-14.45-34.87-9.3-9.31-21.68-14.44-34.86-14.44s-25.55,5.13-34.86,14.44c-9.31,9.3-14.44,21.68-14.44,34.86v41.51c0,4.3,3.49,7.79,7.79,7.79ZM336.04,326.17h-80.78v-33.72c0-9.01,3.51-17.48,9.87-23.84,6.37-6.37,14.84-9.88,23.85-9.88s17.48,3.51,23.84,9.88c6.37,6.37,9.88,14.83,9.88,23.85,0,12.65,4.72,24.56,13.34,33.72Z"/>
      <path class="cls-1" d="M50.58,372.59h166.04c21.3,0,38.63-17.33,38.63-38.63v-41.51c0-9.01,3.51-17.48,9.87-23.84,6.37-6.37,14.84-9.88,23.85-9.88,4.3,0,7.79-3.49,7.79-7.79s-3.49-7.79-7.79-7.79H120.98c-26.11,0-47.35,21.24-47.35,47.35v43.47c0,12.71-10.34,23.05-23.05,23.05-4.3,0-7.79,3.49-7.79,7.79s3.49,7.79,7.79,7.79ZM253.01,258.72c-8.61,9.16-13.34,21.08-13.34,33.72v41.51c0,12.71-10.34,23.05-23.05,23.05H81.56c4.8-6.44,7.65-14.42,7.65-23.05v-43.47c0-17.52,14.25-31.77,31.77-31.77h132.03Z"/>
      <path class="cls-1" d="M372,341.75c27.19,0,49.3-22.12,49.3-49.3v-98.45c0-4.3-3.49-7.79-7.79-7.79s-7.79,3.49-7.79,7.79c0,10.09-8.21,18.29-18.3,18.29s-18.29-8.21-18.29-18.29c0-4.3-3.49-7.79-7.79-7.79s-7.79,3.49-7.79,7.79c0,10.09-8.21,18.29-18.3,18.29s-18.29-8.21-18.29-18.29c0-4.3-3.49-7.79-7.79-7.79s-7.79,3.49-7.79,7.79c0,10.09-8.21,18.29-18.29,18.29s-18.3-8.21-18.3-18.29c0-4.3-3.49-7.79-7.79-7.79s-7.79,3.49-7.79,7.79c0,10.09-8.21,18.29-18.29,18.29s-18.3-8.21-18.3-18.29c0-4.3-3.49-7.79-7.79-7.79s-7.79,3.49-7.79,7.79v56.93c0,4.3,3.49,7.79,7.79,7.79h84.17c9.01,0,17.48,3.51,23.84,9.88,6.37,6.37,9.88,14.83,9.88,23.85,0,13.18,5.13,25.56,14.45,34.86,9.3,9.31,21.68,14.44,34.86,14.44ZM405.73,222.5v69.95c0,18.59-15.13,33.72-33.72,33.72-9.01,0-17.48-3.51-23.84-9.88-6.37-6.37-9.88-14.83-9.88-23.85,0-13.18-5.13-25.56-14.45-34.87-9.3-9.31-21.68-14.44-34.86-14.44h-76.38v-20.64c5.28,3.4,11.57,5.38,18.3,5.38,10.48,0,19.87-4.79,26.09-12.29,6.22,7.5,15.61,12.29,26.09,12.29s19.87-4.79,26.09-12.29c6.22,7.5,15.61,12.29,26.09,12.29s19.87-4.79,26.09-12.29c6.22,7.5,15.6,12.29,26.09,12.29,6.74,0,13.02-1.98,18.3-5.38Z"/>
      <g>
        <path class="cls-1" d="M230.9,227.87c18.68,0,33.88-15.2,33.88-33.88v-22.65l33.36-30.38c2.38-2.17,3.18-5.57,2.02-8.57-1.16-3-4.05-4.98-7.27-4.98h-52.18c-1.94,0-3.81.72-5.25,2.03l-35.9,32.7c-1.62,1.48-2.55,3.57-2.55,5.76v26.09c0,18.68,15.2,33.88,33.88,33.88ZM272.76,142.99l-21.03,19.15c-1.62,1.48-2.55,3.57-2.55,5.76v26.09c0,10.09-8.21,18.29-18.29,18.29s-18.3-8.21-18.3-18.29v-22.65l31.13-28.35h29.04Z"/>
        <path class="cls-1" d="M283.07,227.87c18.68,0,33.88-15.2,33.88-33.88v-22.65l33.36-30.38c2.38-2.17,3.18-5.57,2.02-8.57-1.16-3-4.05-4.98-7.27-4.98h-52.18c-1.94,0-3.81.72-5.25,2.03l-35.9,32.7c-1.62,1.48-2.55,3.57-2.55,5.76v26.09c0,18.68,15.2,33.88,33.88,33.88ZM324.94,142.99l-21.03,19.15c-1.62,1.48-2.55,3.57-2.55,5.76v26.09c0,10.09-8.21,18.29-18.29,18.29s-18.3-8.21-18.3-18.29v-22.65l31.13-28.35h29.04Z"/>
        <path class="cls-1" d="M335.25,227.87c18.68,0,33.88-15.2,33.88-33.88v-22.65l33.36-30.38c2.38-2.17,3.18-5.57,2.02-8.57-1.16-3-4.05-4.98-7.27-4.98h-52.18c-1.94,0-3.81.72-5.25,2.03l-35.9,32.7c-1.62,1.48-2.55,3.57-2.55,5.76v26.09c0,18.68,15.2,33.88,33.88,33.88ZM377.12,142.99l-21.03,19.15c-1.62,1.48-2.55,3.57-2.55,5.76v26.09c0,10.09-8.21,18.29-18.3,18.29s-18.29-8.21-18.29-18.29v-22.65l31.13-28.35h29.04Z"/>
        <path class="cls-1" d="M387.42,227.87c18.68,0,33.88-15.2,33.88-33.88v-22.65l33.36-30.38c2.38-2.17,3.18-5.57,2.02-8.57-1.16-3-4.05-4.98-7.27-4.98h-52.18c-1.94,0-3.81.72-5.25,2.03l-35.9,32.7c-1.62,1.48-2.55,3.57-2.55,5.76v26.09c0,18.68,15.2,33.88,33.88,33.88ZM429.29,142.99l-21.02,19.15c-1.62,1.48-2.55,3.57-2.55,5.76v26.09c0,10.09-8.21,18.29-18.3,18.29s-18.29-8.21-18.29-18.29v-22.65l31.13-28.35h29.04Z"/>
      </g>
      <path class="cls-1" d="M86.16,331.31h112.57c4.3,0,7.79-3.49,7.79-7.79s-3.49-7.79-7.79-7.79h-112.57c-4.3,0-7.79,3.49-7.79,7.79s3.49,7.79,7.79,7.79Z"/>
      <path class="cls-1" d="M123.53,298.65h74.73c4.3,0,7.79-3.49,7.79-7.79s-3.49-7.79-7.79-7.79h-74.73c-4.3,0-7.79,3.49-7.79,7.79s3.49,7.79,7.79,7.79Z"/>
    </g>
  </g>
</svg>